<?xml version="1.0" encoding="utf-8"?>
<svg version="1.1" id="Layer_2" xmlns="http://www.w3.org/2000/svg" xmlns:xlink="http://www.w3.org/1999/xlink" x="0px" y="0px"
	 viewBox="0 0 288 432" style="enable-background:new 0 0 288 432;" xml:space="preserve">
<style type="text/css">
	.st0{fill:#FFFFFF;}
	.st1{fill:#0071CE;}
	.st2{fill:#0B141F;}
	.st3{fill:#0071CE;stroke:#0B141F;stroke-width:0.8582;stroke-miterlimit:10;}
	.st4{fill:#0071B9;stroke:#0B141F;stroke-width:0.8582;stroke-miterlimit:10;}
	.st5{fill:#ED1C24;}
</style>
<path class="st0" d="M41.8,295c2.4,0.1,4.8,0.2,7.1,0.3c2.4,0.1,4.7,0.1,6.9,0.1c1.9,0,4,0,6.4-0.1c2.4-0.1,4.8-0.2,7.5-0.3v3.5
	h-0.9c-2.2,0-3.9,0.3-5,0.8c-1.1,0.5-1.9,1.4-2.3,2.6c-0.3,0.8-0.5,2.1-0.6,3.8c-0.1,1.8-0.2,4.6-0.2,8.6v10.2v25.5
	c0,4,0.1,6.9,0.3,8.5c0.2,1.6,0.5,2.9,0.9,3.6c0.4,0.9,1.2,1.5,2.4,1.8c1.1,0.4,2.8,0.6,4.8,0.6h1.1v3.3c-2.9-0.1-5.6,0.1-8.1,0
	c-2.5-0.1-4.6-0.1-6.2-0.1c-2,0-4.2,0-6.7,0.1c-2.5,0.1-5.1,0.2-7.8,0.3v-3.6h1c2.1,0,3.7-0.2,4.9-0.6c1.1-0.4,1.9-1,2.4-1.8
	c0.5-0.9,0.8-2.4,1-4.5c0.2-2.1,0.3-5.9,0.3-11.4V338v-20c0-5.4-0.1-9.2-0.2-11.5c-0.1-2.3-0.4-3.9-0.7-4.7c-0.4-1.2-1.2-2-2.2-2.6
	c-1.1-0.5-2.7-0.8-5-0.8h-0.9V295z"/>
<path class="st0" d="M191.3,297.3v1.7c0,2.4,0.1,4.9,0.3,7.4c0.2,2.6,0.4,5.3,0.8,8.1l-3.7,0.6c-0.7-4.9-3-8.7-7-11.5
	c-4-2.7-9.1-4.1-15.5-4.1c-8.5,0-15.1,2.6-19.7,7.8c-4.6,5.2-6.9,12.6-6.9,22.1c0,10.2,2.7,18.5,8,24.8c5.3,6.3,12.2,9.4,20.7,9.4
	c5.3,0,9.9-1.2,13.8-3.7c3.9-2.5,7-6.1,9.1-10.8l3.4,1.7c-1.1,2.2-2.1,4.5-3,6.8c-0.9,2.3-1.7,4.6-2.4,6.9
	c-3.7,1.7-7.4,2.9-11.3,3.8c-3.8,0.9-7.7,1.3-11.5,1.3c-11.3,0-20.5-3.5-27.5-10.5c-7-7-10.5-16.2-10.5-27.7
	c0-11.3,3.7-20.4,11.1-27.5c7.4-7.1,17-10.6,28.7-10.6c3.5,0,7.2,0.3,11,1C183.1,295,187.2,296,191.3,297.3z"/>
<path class="st0" d="M137.6,364.5c-1.8,0-3.3-0.4-4.2-1.1c-1-0.8-2.2-2.7-3.5-6c-2.3-5.6-5.4-14.1-9.4-25.3
	c-4-11.2-8.2-23.6-12.6-37.1H99c-5.4,14.4-10.5,27.6-15.4,39.6c-4.9,12-8.3,20-10.2,24c-1.1,2.1-2.3,3.6-3.7,4.5
	c-1.4,0.9-3.3,1.4-5.8,1.5v3.2c2.4-0.1,4.6,0.1,6.7,0c2-0.1,3.8-0.1,5.1-0.1c1.7,0,3.6,0,5.8,0.1c2.2,0.1,4.5,0.2,7,0.3v-3.5h-1.4
	c-2.3,0-3.9-0.3-4.8-1c-0.9-0.7-1.3-1.8-1.3-3.5c0-1.2,0.4-3.2,1.3-6c0.9-2.8,2.5-7.3,5-13.4c2.2-0.1,4.4-0.1,6.4-0.1
	c2.1,0,4.3,0,6.6,0c1,0,3.1,0,6.2,0.1c-0.4-1.7-1-4-1.2-5.2c-2.3,0-4,0.1-5.1,0.1c-1.4,0-4-0.1-7.9-0.2c-1.2,0-2.2-0.1-2.8-0.1
	l11.7-30.6l10.5,30.6l0,0l1.8,5.4l0,0l5,15.7c0.3,0.9,0.5,1.7,0.7,2.4c0.1,0.7,0.2,1.3,0.2,1.8c0,1.5-0.4,2.5-1.3,3.1
	c-0.9,0.6-2.5,0.8-5,0.8h-1v3.5c2.6-0.1,5-0.2,7.3-0.3c2.3-0.1,4.4-0.1,6.3-0.1c1.5,0,3.4,0,5.6,0.1c2.2,0.1,4.6,0.2,7.3,0.3v-3.5
	H137.6z"/>
<path class="st1" d="M241.7,300.4c-4.5-3.7-10.4-5.6-17.9-5.6c-1,0-3.3,0.1-6.8,0.2c-3.5,0.2-6.5,0.2-9,0.2c-2.3,0-4.5,0-6.8-0.1
	c-2.3-0.1-4.6-0.2-6.9-0.4v3.6h0.4c2.8,0,4.7,0.5,5.8,1.6c1.1,1.1,1.6,3.1,1.6,6v32c0,1.6,0,3.6,0.1,6.2c0,2.6,0.1,4.3,0.1,5.3
	c0,6.4-0.5,10.6-1.5,12.4c-1,1.9-2.8,2.8-5.6,2.8c-0.5,0-0.9,0-1.2,0c-0.3,0-0.5,0-0.8-0.1v3.3c2.9-0.1,5.6-0.2,7.9-0.3
	c2.3-0.1,4.1-0.1,5.2-0.1c2.5,0,4.9,0,7.5,0.1c2.5,0.1,5,0.2,7.5,0.3l-0.1-3.4c-0.1,0-0.1-0.1-0.2-0.1s-0.2,0-0.4,0
	c-0.1,0-0.3,0-0.6,0.1c-0.3,0-0.4,0.1-0.5,0.1c-3.2,0-5.4-0.7-6.5-2c-1.1-1.3-1.6-4.7-1.6-9.9v-15.4h0v-4.7h0c0-0.2,0-0.4,0-0.6
	v-0.6v0c0-6.6,0-12.1,0.1-16.6c0-4.7,0.1-9.3,0.2-14c1.3-0.2,2.7-0.4,4.1-0.5c1.4-0.1,2.8-0.2,4.4-0.2c5.6,0,10,1.5,13.3,4.4
	c3.3,2.9,4.9,6.9,4.9,11.8c0,5.5-1.7,9.7-5,12.5c-2.9,2.4-6.9,3.8-12,4.2l1.3,4.7c7.8-0.3,14-2.3,18.5-5.9c4.9-4,7.3-9.6,7.3-16.8
	C248.4,309,246.2,304.1,241.7,300.4z"/>
<path class="st2" d="M197.6,157.1c0,29.6-24,53.6-53.6,53.6c-29.6,0-53.6-24-53.6-53.6c0-29.6,24-53.6,53.6-53.6
	C173.6,103.5,197.6,127.5,197.6,157.1z"/>
<g>
	<path class="st3" d="M146.4,211.2c-0.2,0-0.4,0-0.6,0c-0.2,0-0.4,0-0.6-0.1c-0.2,0-0.4-0.1-0.6-0.1c-0.2-0.1-0.4-0.1-0.6-0.2
		c-0.5-0.2-1.4-0.2-2.7-0.2c-1.2,0-2.4,0-3.5-0.1c-1.2-0.1-2.3-0.2-3.4-0.3c-1.1-0.1-2.2-0.3-3.3-0.5c-1.1-0.2-2.1-0.5-3.2-0.7
		c-0.6-0.2-0.7-0.2-1-0.3c0.2,0.1,0.4,0.1,0.5,0.2c4.8,1.3,5,1.4,8.1,1.9c4.8,0.6,5,0.6,7.7,0.6L146.4,211.2"/>
	<path class="st4" d="M166.1,206.5c0-0.1,0-0.2,0-0.3c0-0.1-0.1-0.2-0.1-0.3c0-0.1-0.1-0.3-0.2-0.4c-0.2-0.1-0.5-0.2-2.2,0.5
		c-0.5,0.2-1.1,0.4-1.6,0.6c-0.6,0.2-1.1,0.4-1.7,0.6c-0.6,0.2-1.1,0.4-1.7,0.6c-0.6,0.2-1.1,0.3-1.7,0.5c-0.7,0.2-1.4,0.4-2.1,0.5
		c-0.7,0.2-1.4,0.3-2.1,0.5c-0.7,0.1-1.4,0.3-2.1,0.4c-0.7,0.1-1.4,0.2-2,0.3c-1,0.2-1.4,0.3-1.6,0.4c0,0,0,0.1,0,0.1
		c0.2,0.1,0.4,0.2,0.6,0.2c0.2,0.1,0.4,0.1,0.6,0.2c0.2,0,0.4,0.1,0.5,0.1c0.2,0,0.4,0,0.5,0l1.6-0.2c4.5-0.7,4.8-0.8,7.7-1.6
		c4.5-1.4,4.5-1.4,6.6-2.3L166.1,206.5"/>
	<path class="st4" d="M182.2,195.4c0.1-0.1,0.3-0.3,0.4-0.4c0.1-0.1,0.2-0.3,0.3-0.5c0.1-0.2,0.2-0.3,0.3-0.5
		c0.1-0.2,0.2-0.4,0.2-0.6c0,0,0-0.1,0-0.1c-0.1,0-0.3,0-1.3,0.8c-0.9,0.8-1.8,1.6-2.7,2.3c-0.9,0.8-1.9,1.5-2.9,2.2
		c-1,0.7-2,1.4-3.1,2.1c-1,0.7-2.1,1.3-3.2,1.9c-1.2,0.7-1.8,1.2-1.8,1.5c0,0.2,0.1,0.3,0.1,0.5c0,0.1,0,0.3,0,0.4
		c0,0.1,0,0.2,0,0.2c0,0.1-0.1,0.1-0.1,0.1l2.8-1.6c3.8-2.4,3.9-2.4,5.7-3.9C178.7,198.6,180.7,196.8,182.2,195.4"/>
	<path class="st3" d="M191.6,182.7c0.7-1.5,1.7-3.5,2.4-5l-0.1,0.2c0,0.1-0.1,0.2-0.1,0.3c-0.4,0.9-0.9,1.9-1.4,2.8
		c-0.5,0.9-1,1.9-1.6,2.8c-0.6,0.9-1.2,1.8-1.8,2.7c-0.6,0.9-1.3,1.8-2.1,2.6c-0.8,1-1.3,1.7-1.6,2.2c-0.1,0.2-0.2,0.4-0.2,0.5
		c-0.1,0.2-0.2,0.3-0.3,0.5c-0.1,0.2-0.2,0.3-0.3,0.5c-0.1,0.1-0.2,0.3-0.3,0.4c0.9-1.1,2.2-2.6,3.1-3.7
		C189.7,186.1,190.5,185,191.6,182.7"/>
	<path class="st4" d="M121.5,206.2c-0.5-0.3-1.1-0.7-1.6-1.1c-0.5-0.4-1-0.9-1.5-1.4c-0.5-0.5-1-1-1.4-1.6c-0.5-0.6-0.9-1.2-1.3-1.8
		c-0.6-0.7-1.4-1.4-2.5-1.9c-1-0.5-2-0.9-3-1.5c-1-0.5-1.9-1.1-2.8-1.7c-0.9-0.6-1.7-1.2-2.6-1.9c-0.8-0.7-1.6-1.3-2.3-2.1
		c-0.5-0.5-0.5-0.5-0.7-0.5c0.1,0.1,0.2,0.3,0.2,0.4c0.2,0.2,0.3,0.5,0.5,0.7c0.2,0.2,0.3,0.4,0.5,0.6c0.2,0.2,0.3,0.4,0.5,0.6
		c0.2,0.2,0.4,0.4,0.5,0.6c3.8,3.8,4.1,4.2,7,6.4c4.4,3.1,4.6,3.3,7.7,4.9c0.2,0.1,0.3,0.2,0.5,0.3c0.2,0.1,0.3,0.2,0.5,0.3
		c0.2,0.1,0.4,0.2,0.5,0.3c0.2,0.1,0.4,0.2,0.5,0.2c0.5,0.2,0.6,0.3,0.9,0.3C121.6,206.3,121.5,206.2,121.5,206.2"/>
	<path class="st4" d="M141.9,209.3c-0.4-0.3-0.7-0.7-1.1-1.1c-0.4-0.4-0.7-0.8-1.1-1.3c-0.4-0.5-0.7-1-1.1-1.6
		c-0.4-0.6-0.7-1.2-1.1-1.8c-0.5-0.7-1.5-1.1-3-1.1c-1.3,0-2.7,0-4-0.1c-1.3-0.1-2.6-0.2-3.8-0.3c-1.3-0.2-2.5-0.3-3.7-0.6
		c-1.2-0.2-2.4-0.5-3.5-0.8c-1.6-0.3-1.5,0.2-1.3,0.6c0.4,0.7,0.9,1.3,1.3,1.8c0.4,0.6,0.9,1.1,1.4,1.6c0.5,0.5,1,0.9,1.5,1.3
		c0.5,0.4,1,0.8,1.5,1.1c0.7,0.4,1.5,0.7,2.7,1.1c1.1,0.3,2.1,0.5,3.2,0.8c1.1,0.2,2.2,0.4,3.4,0.5c1.1,0.1,2.3,0.3,3.5,0.3
		c1.2,0.1,2.4,0.1,3.6,0.1c0.9,0,1.3-0.1,1.6-0.4C142,209.4,142,209.3,141.9,209.3"/>
	<path class="st4" d="M165.1,203.6c-0.1-0.4-0.3-0.8-0.5-1.2c-0.2-0.4-0.4-0.9-0.6-1.4c-0.2-0.5-0.4-1.1-0.7-1.7
		c-0.2-0.6-0.5-1.2-0.8-1.9c-0.4-0.7-1.4-0.7-2.8-0.2c-0.6,0.2-1.2,0.5-1.9,0.7c-0.6,0.2-1.3,0.5-1.9,0.7c-0.6,0.2-1.3,0.4-1.9,0.6
		c-0.6,0.2-1.3,0.4-2,0.6c-0.8,0.2-1.6,0.4-2.4,0.6c-0.8,0.2-1.6,0.4-2.3,0.5c-0.8,0.2-1.6,0.3-2.3,0.5c-0.8,0.1-1.5,0.3-2.3,0.4
		c-1.4,0.3-2,0.8-1.8,1.5c0.4,0.7,0.7,1.3,1.1,1.8c0.3,0.6,0.7,1.1,1,1.6c0.3,0.5,0.7,0.9,1,1.3c0.3,0.4,0.7,0.8,1,1.1
		c0.5,0.3,1.4,0.4,2.8,0.2c0.7-0.1,1.4-0.2,2.1-0.3c0.7-0.1,1.4-0.3,2.1-0.4c0.7-0.1,1.4-0.3,2.1-0.5c0.7-0.2,1.4-0.4,2.1-0.6
		c0.6-0.2,1.2-0.3,1.8-0.5c0.6-0.2,1.2-0.4,1.7-0.6c0.6-0.2,1.2-0.4,1.7-0.6c0.6-0.2,1.1-0.4,1.7-0.7
		C165,204.4,165.2,203.9,165.1,203.6"/>
	<path class="st4" d="M184,190.8c0-0.5,0-1,0-1.5c0-0.5-0.1-1.1-0.2-1.7c-0.1-0.6-0.2-1.2-0.4-1.9c-0.1-0.7-0.3-1.4-0.5-2.1
		c-0.3-0.7-1-0.6-2.1,0.3c-1,0.9-2,1.8-3.1,2.6c-1.1,0.9-2.1,1.7-3.3,2.5c-1.1,0.8-2.3,1.6-3.5,2.3c-1.2,0.7-2.4,1.5-3.7,2.2
		c-1.3,0.8-1.9,1.6-1.7,2.4c0.3,0.7,0.5,1.3,0.8,1.9c0.2,0.6,0.4,1.2,0.6,1.7c0.2,0.5,0.4,1,0.5,1.5c0.2,0.5,0.3,0.9,0.4,1.3
		c0.2,0.3,1,0.2,2.2-0.4c1.1-0.6,2.2-1.3,3.3-2c1.1-0.7,2.1-1.4,3.1-2.1c1-0.7,2-1.5,3-2.3c1-0.8,1.9-1.6,2.8-2.4
		C183.7,191.8,184,191.1,184,190.8"/>
	<path class="st4" d="M195.3,174c0.1-0.6,0.2-1.3,0.3-1.9c0.1-0.7,0.1-1.3,0.1-2c0-0.7-0.1-1.4-0.2-2.1c-0.1-0.7-0.2-1.5-0.4-2.2
		c-0.3-0.8-0.7-0.3-0.9,0.2c-0.1,0.1-0.1,0.2-0.2,0.3c-0.5,1.1-1,2.1-1.5,3.1c-0.6,1-1.2,2.1-1.8,3.1c-0.6,1-1.3,2-2.1,3
		c-0.7,1-1.5,2-2.3,3c-0.9,1.1-1.2,2.1-1.1,2.9c0.2,0.7,0.4,1.4,0.5,2.1c0.1,0.7,0.2,1.3,0.3,1.9c0.1,0.6,0.1,1.2,0.1,1.8
		c0,0.6,0,1.1-0.1,1.6c0,0,0,0.1,0,0.1c0,0,0.1,0.1,0.2,0.1c0.3-0.1,0.5-0.3,1-0.9c0.7-0.9,1.5-1.8,2.1-2.7c0.7-0.9,1.3-1.8,1.9-2.8
		c0.6-0.9,1.1-1.9,1.6-2.8c0.5-1,1-1.9,1.4-2.9C195,175.2,195.2,174.4,195.3,174"/>
	<path class="st4" d="M197.2,146.9c0-0.1,0-0.1,0-0.1c0-0.1-0.1-0.3-0.1-0.4c0,0.2,0,0.2,0.1,0.8c0.1,1,0.2,2.1,0.2,3.1
		c0,1,0,2.1-0.1,3.2c-0.1,1.1-0.2,2.1-0.4,3.2c-0.2,1.1-0.4,2.1-0.7,3.2c-0.3,1.2-0.3,2.3-0.2,3.2c0.2,0.8,0.3,1.5,0.4,2.3
		c0.1,0.7,0.1,1.5,0.1,2.2c0,0.7,0,1.4-0.1,2.1c-0.1,0.7-0.2,1.3-0.3,2c0,0.1,0,0.2-0.1,0.3c0.6-1.8,1.2-5.2,1.5-6.7
		c0.6-5.1,0.7-6,0.5-10.8C197.9,152.1,197.6,149.2,197.2,146.9"/>
	<path class="st4" d="M184.4,121c-1.1-1.2-2.6-2.7-3.8-3.8l0.1,0.1c0.1,0.1,0.2,0.1,0.2,0.2c0.7,0.6,1.3,1.3,1.9,2
		c0.6,0.7,1.2,1.4,1.7,2.2c0.5,0.8,1,1.5,1.5,2.4c0.5,0.8,0.9,1.7,1.2,2.5c0.5,1,1,1.9,1.7,2.6c0.6,0.6,1.2,1.3,1.7,1.9
		c0.5,0.7,1,1.4,1.5,2.1c0.5,0.7,0.9,1.4,1.3,2.2c0.4,0.7,0.7,1.5,1.1,2.3c0,0.1,0.1,0.3,0.2,0.4c-1-2.3-2.4-5.4-3.6-7.7
		C188.5,126.1,187.3,124.2,184.4,121"/>
	<path class="st4" d="M97.9,184.9c-0.3-0.8-0.6-1.6-0.9-2.4c-0.3-0.8-0.5-1.7-0.7-2.5c-0.2-0.9-0.4-1.7-0.5-2.6
		c-0.1-0.9-0.2-1.8-0.3-2.7c-0.1-1-0.5-2-1-2.9c-0.5-0.8-1-1.6-1.5-2.4c-0.5-0.8-0.9-1.7-1.2-2.5c-0.4-0.9-0.7-1.7-1-2.6
		c-0.3-0.9-0.5-1.8-0.7-2.8c-0.1-0.4-0.1-0.5-0.2-0.7c-0.1,0.1-0.1,0.3-0.1,0.4c0,0.2,0,0.4,0,0.7c0,0.2,0,0.4,0,0.7
		c0,0.2,0,0.4,0.1,0.7c0,0.2,0,0.4,0.1,0.7c0.9,5.5,1,5.9,2.1,9.5c0.9,2.5,2.2,5.7,3.3,8.1c0.1,0.3,0.3,0.6,0.5,0.9
		c0.2,0.3,0.3,0.6,0.5,0.9c0.2,0.3,0.3,0.6,0.5,0.8c0.2,0.3,0.4,0.6,0.6,0.8c0.2,0.3,0.3,0.4,0.5,0.6c0,0,0.1-0.1,0.1-0.1
		C98,185.2,98,185.1,97.9,184.9"/>
	<path class="st4" d="M113.3,195.9c-0.3-0.8-0.7-1.6-1-2.5c-0.3-0.9-0.6-1.7-0.8-2.6c-0.2-0.9-0.5-1.8-0.7-2.8
		c-0.2-1-0.4-1.9-0.5-2.9c-0.3-1.1-0.9-1.9-2-2.4c-1-0.4-1.9-0.9-2.9-1.4c-0.9-0.5-1.8-1-2.7-1.6c-0.8-0.5-1.7-1.1-2.4-1.7
		c-0.8-0.6-1.5-1.2-2.2-1.9c-0.7-0.6-1.1-0.5-1.1,0.4c0.1,0.9,0.2,1.8,0.3,2.7c0.1,0.9,0.3,1.8,0.5,2.6c0.2,0.9,0.4,1.7,0.7,2.5
		c0.3,0.8,0.6,1.6,0.9,2.4c0.4,0.9,1.1,1.8,1.9,2.6c0.7,0.7,1.5,1.4,2.3,2.1c0.8,0.7,1.7,1.3,2.6,1.9c0.9,0.6,1.8,1.2,2.8,1.7
		c1,0.5,2,1,3,1.5C113.5,197,113.5,196.4,113.3,195.9"/>
	<path class="st4" d="M135.5,199.1c-0.3-0.8-0.7-1.7-1-2.5c-0.3-0.9-0.7-1.8-1-2.7c-0.3-0.9-0.6-1.9-0.9-2.9c-0.3-1-0.6-2-0.9-3
		c-0.4-1.1-1.3-1.6-2.7-1.7c-1.3,0-2.5,0-3.8,0c-1.2-0.1-2.5-0.1-3.7-0.3c-1.2-0.1-2.4-0.3-3.5-0.5c-1.2-0.2-2.3-0.5-3.4-0.7
		c-1.2-0.2-1.7,0.2-1.6,1.2c0.2,1,0.3,2,0.6,3c0.2,1,0.4,1.9,0.7,2.8c0.3,0.9,0.5,1.8,0.8,2.7c0.3,0.9,0.6,1.7,1,2.5
		c0.5,0.9,1.3,1.5,2.6,1.9c1.2,0.3,2.3,0.6,3.6,0.8c1.2,0.2,2.5,0.4,3.7,0.6c1.3,0.2,2.6,0.3,3.9,0.3c1.3,0.1,2.6,0.1,4,0.1
		C135.6,200.4,135.6,199.6,135.5,199.1"/>
	<path class="st4" d="M160.7,192.9c-0.3-0.8-0.7-1.7-1.1-2.5c-0.4-0.9-0.8-1.8-1.1-2.7c-0.4-0.9-0.8-1.9-1.2-2.8
		c-0.4-1-0.8-1.9-1.3-2.9c-0.6-1-1.5-1.3-3-0.8c-0.6,0.2-1.2,0.5-1.8,0.7c-0.6,0.2-1.2,0.4-1.8,0.7c-0.6,0.2-1.2,0.4-1.8,0.6
		c-0.6,0.2-1.2,0.4-1.9,0.6c-0.8,0.2-1.5,0.4-2.3,0.6c-0.8,0.2-1.5,0.4-2.2,0.5c-0.7,0.2-1.5,0.3-2.2,0.4c-0.7,0.1-1.5,0.3-2.2,0.4
		c-1.4,0.3-2,1-1.8,2.1c0.3,1,0.6,2,0.9,3c0.3,1,0.6,1.9,1,2.9c0.3,0.9,0.7,1.8,1,2.7c0.3,0.9,0.7,1.7,1,2.5c0.5,0.8,1.5,1.2,3,1.1
		c0.8-0.1,1.5-0.2,2.3-0.4c0.8-0.1,1.6-0.3,2.3-0.5c0.8-0.2,1.6-0.3,2.4-0.5c0.8-0.2,1.6-0.4,2.4-0.6c0.7-0.2,1.3-0.4,2-0.6
		c0.7-0.2,1.3-0.4,1.9-0.6c0.6-0.2,1.3-0.4,1.9-0.7c0.6-0.2,1.3-0.5,1.9-0.7C160.9,194.4,160.9,193.4,160.7,192.9"/>
	<path class="st4" d="M181.4,179c-0.3-0.8-0.7-1.6-1.1-2.5c-0.4-0.8-0.8-1.7-1.3-2.6c-0.4-0.9-0.9-1.7-1.4-2.6
		c-0.5-0.9-1-1.8-1.6-2.7c-0.7-0.9-1.5-0.9-2.6-0.1c-0.9,0.9-1.9,1.7-2.9,2.5c-1,0.8-2.1,1.6-3.1,2.4c-1.1,0.8-2.2,1.5-3.3,2.2
		c-1.1,0.7-2.3,1.4-3.5,2c-1.2,0.8-1.7,1.7-1.3,2.8c0.4,1,0.9,2,1.3,2.9c0.4,1,0.8,1.9,1.2,2.8c0.4,0.9,0.8,1.8,1.2,2.7
		c0.4,0.9,0.7,1.7,1.1,2.5c0.5,0.8,1.4,0.9,2.8,0.2c1.3-0.7,2.5-1.4,3.7-2.2c1.2-0.8,2.4-1.5,3.5-2.3c1.1-0.8,2.2-1.6,3.3-2.5
		c1.1-0.9,2.1-1.7,3.1-2.6C181.6,180.6,181.5,179.5,181.4,179"/>
	<path class="st4" d="M193.6,161c-0.3-0.8-0.7-1.6-1.1-2.4c-0.4-0.8-0.8-1.6-1.3-2.4c-0.5-0.8-1-1.6-1.5-2.4
		c-0.5-0.8-1.1-1.6-1.7-2.4c-0.7-0.7-1.3-0.6-1.8,0.4c-0.5,1-1,2-1.5,3c-0.5,1-1.1,2-1.8,2.9c-0.6,1-1.3,1.9-2,2.9
		c-0.7,0.9-1.5,1.9-2.3,2.8c-0.8,1.1-0.9,2.1-0.4,3.1c0.6,0.9,1.1,1.8,1.6,2.7c0.5,0.9,1,1.7,1.4,2.6c0.5,0.9,0.9,1.7,1.3,2.5
		c0.4,0.8,0.8,1.7,1.1,2.5c0.4,0.8,1.1,0.7,2-0.3c0.8-1,1.6-2,2.3-3c0.7-1,1.4-2,2.1-3c0.7-1,1.3-2.1,1.8-3.1c0.6-1,1.1-2.1,1.5-3.1
		C194,162.5,193.8,161.4,193.6,161"/>
	<path class="st4" d="M195.7,142.1c-0.3-0.8-0.7-1.5-1.1-2.3c-0.4-0.8-0.8-1.5-1.3-2.2c-0.5-0.7-1-1.4-1.5-2.1
		c-0.5-0.7-1.1-1.4-1.7-2c-0.7-0.7-0.9-0.2-0.9,0.2c0,0.1,0,0.2,0,0.3c0.1,1,0.2,1.9,0.2,2.9c0,1,0,2-0.1,3c-0.1,1-0.2,2-0.4,3
		c-0.2,1-0.4,2-0.7,3c-0.2,1.1,0,2.1,0.6,3.1c0.6,0.8,1.2,1.5,1.7,2.3c0.5,0.8,1.1,1.6,1.5,2.4c0.5,0.8,0.9,1.6,1.3,2.4
		c0.4,0.8,0.8,1.6,1.1,2.4c0.5,0.9,0.8,0.2,0.9-0.1c0-0.1,0.1-0.2,0.1-0.3c0.3-1.1,0.5-2.1,0.7-3.2c0.2-1.1,0.3-2.1,0.4-3.2
		c0.1-1.1,0.1-2.1,0.1-3.2c0-1-0.1-2.1-0.2-3.1C196.3,143.7,195.9,142.6,195.7,142.1"/>
	<path class="st4" d="M177.1,114.3c-0.6-0.4-1.3-0.8-2-1.2c-0.7-0.4-1.4-0.7-2.1-1c-0.7-0.3-1.5-0.6-2.3-0.9
		c-0.8-0.3-1.6-0.5-2.4-0.7c-0.9-0.2-0.8,0.2-0.6,0.4c0,0.1,0.1,0.1,0.2,0.2c0.5,0.5,1,1,1.5,1.6c0.5,0.6,0.9,1.1,1.3,1.7
		c0.4,0.6,0.8,1.2,1.1,1.9c0.3,0.6,0.7,1.3,0.9,2c0.4,0.8,1.1,1.4,2.1,1.8c0.9,0.4,1.9,0.8,2.8,1.2c0.9,0.4,1.8,0.8,2.6,1.3
		c0.8,0.5,1.7,0.9,2.4,1.4c0.8,0.5,1.5,1,2.3,1.6c0.9,0.6,0.8,0,0.7-0.2c0-0.1-0.1-0.2-0.1-0.3c-0.4-0.8-0.8-1.7-1.2-2.5
		c-0.4-0.8-0.9-1.6-1.4-2.3c-0.5-0.7-1.1-1.4-1.7-2.1c-0.6-0.7-1.2-1.3-1.9-2C178.3,115.2,177.5,114.6,177.1,114.3"/>
	<path class="st4" d="M90.1,154.1c0.1-0.8,0.3-1.6,0.5-2.4c0.2-0.8,0.5-1.6,0.8-2.4c0.3-0.8,0.6-1.6,1-2.4c0.4-0.8,0.8-1.6,1.2-2.3
		c0.5-0.9,0.7-1.8,0.8-2.7c0-0.8,0-1.5,0.1-2.3c0.1-0.8,0.2-1.5,0.3-2.3c0.1-0.8,0.3-1.5,0.6-2.3c0.2-0.8,0.5-1.5,0.8-2.3
		c0.1-0.3,0.1-0.4,0.2-0.6c0,0-0.1,0-0.1,0c-0.1,0.1-0.2,0.2-0.2,0.3c-0.2,0.3-0.4,0.5-0.5,0.8c-0.2,0.3-0.3,0.5-0.5,0.8
		c-0.2,0.3-0.3,0.6-0.4,0.8c-0.1,0.3-0.3,0.6-0.4,0.9c-0.6,1.6-1.4,3.6-1.9,5.2c-1.3,4.7-1.5,5.4-2,9.5c0,0.3-0.1,0.6-0.1,0.9
		c0,0.3-0.1,0.6-0.1,0.9c0,0.3,0,0.6,0,0.9c0,0.3,0,0.6,0,0.9c0,0.4,0,0.5,0,0.7C90,154.4,90.1,154.2,90.1,154.1"/>
	<path class="st4" d="M95.7,168.9c0.1-1,0.2-1.9,0.4-2.9c0.2-1,0.4-2,0.6-3c0.2-1,0.5-2,0.8-3c0.3-1,0.6-2,1-3
		c0.3-1.1,0.3-2-0.1-2.8c-0.4-0.6-0.8-1.2-1.2-1.8c-0.4-0.6-0.7-1.3-1-1.9c-0.3-0.7-0.6-1.4-0.8-2.1c-0.2-0.7-0.4-1.4-0.6-2.2
		c-0.3-0.9-0.8-0.3-1,0.1c-0.4,0.8-0.8,1.6-1.2,2.4c-0.4,0.8-0.7,1.6-1,2.5c-0.3,0.8-0.5,1.6-0.8,2.5c-0.2,0.8-0.4,1.6-0.5,2.5
		c-0.1,1-0.1,2,0.1,3c0.2,0.9,0.4,1.8,0.7,2.7c0.3,0.9,0.6,1.7,0.9,2.6c0.4,0.8,0.8,1.7,1.2,2.5c0.4,0.8,0.9,1.6,1.5,2.3
		C95.4,170.3,95.6,169.5,95.7,168.9"/>
	<path class="st4" d="M109.8,178.7c0-1.1-0.1-2.2,0-3.3c0-1.1,0-2.2,0.1-3.4c0.1-1.1,0.1-2.3,0.3-3.4c0.1-1.2,0.2-2.3,0.4-3.5
		c0.1-1.3-0.3-2.1-1.1-2.6c-0.8-0.3-1.5-0.7-2.3-1c-0.7-0.4-1.4-0.8-2.1-1.2c-0.7-0.4-1.3-0.9-2-1.3c-0.6-0.5-1.2-0.9-1.8-1.5
		c-0.6-0.4-1.1-0.1-1.6,0.9c-0.3,1-0.7,2.1-0.9,3.1c-0.3,1-0.5,2.1-0.7,3.1c-0.2,1-0.4,2-0.5,3c-0.1,1-0.3,2-0.3,3
		c0,1.1,0.3,2,1,2.8c0.7,0.6,1.4,1.3,2.2,1.9c0.8,0.6,1.6,1.2,2.4,1.7c0.8,0.5,1.7,1,2.6,1.5c0.9,0.5,1.8,0.9,2.8,1.3
		C109.6,180.3,109.8,179.3,109.8,178.7"/>
	<path class="st4" d="M130.1,181.3c-0.2-1.1-0.5-2.3-0.7-3.4c-0.2-1.2-0.4-2.3-0.6-3.5c-0.2-1.2-0.4-2.4-0.6-3.6
		c-0.2-1.2-0.3-2.4-0.5-3.7c-0.3-1.3-0.9-1.9-2-2c-1,0-2,0-3,0c-1,0-2-0.1-2.9-0.2c-1-0.1-1.9-0.2-2.8-0.4c-0.9-0.1-1.8-0.3-2.7-0.5
		c-0.9-0.1-1.5,0.5-1.7,1.7c-0.1,1.2-0.2,2.4-0.3,3.5c-0.1,1.2-0.1,2.3-0.2,3.5c0,1.1,0,2.3,0,3.4c0,1.1,0.1,2.2,0.1,3.3
		c0.2,1.2,0.8,2,2,2.4c1.1,0.3,2.2,0.5,3.3,0.7c1.1,0.2,2.3,0.4,3.5,0.5c1.2,0.1,2.4,0.2,3.6,0.3c1.2,0.1,2.5,0.1,3.7,0
		C130.1,183.1,130.2,182,130.1,181.3"/>
	<path class="st4" d="M153.3,175.6c-0.5-1.1-0.9-2.2-1.4-3.2c-0.5-1.1-1-2.2-1.4-3.3c-0.5-1.1-1-2.2-1.5-3.4c-0.5-1.1-1-2.3-1.5-3.4
		c-0.6-1.2-1.5-1.6-2.6-1.2c-0.5,0.2-0.9,0.4-1.4,0.6c-0.5,0.2-1,0.4-1.4,0.5c-0.5,0.2-1,0.3-1.5,0.5c-0.5,0.2-1,0.3-1.5,0.4
		c-0.6,0.2-1.2,0.3-1.8,0.5c-0.6,0.2-1.2,0.3-1.8,0.4c-0.6,0.1-1.2,0.2-1.8,0.4c-0.6,0.1-1.2,0.2-1.7,0.3c-1.1,0.3-1.6,1.1-1.5,2.4
		c0.2,1.2,0.4,2.4,0.6,3.6c0.2,1.2,0.4,2.4,0.7,3.6c0.2,1.2,0.5,2.4,0.7,3.5c0.3,1.2,0.5,2.3,0.8,3.4c0.4,1.2,1.3,1.7,2.7,1.6
		c0.7-0.1,1.4-0.2,2.2-0.4c0.7-0.1,1.5-0.3,2.2-0.4c0.7-0.2,1.5-0.3,2.2-0.5c0.7-0.2,1.5-0.4,2.2-0.6c0.6-0.2,1.2-0.4,1.8-0.5
		c0.6-0.2,1.2-0.4,1.8-0.6c0.6-0.2,1.2-0.4,1.8-0.6c0.6-0.2,1.2-0.4,1.8-0.7C153.6,177.4,153.5,176.2,153.3,175.6"/>
	<path class="st4" d="M172.3,162.9c-0.6-0.9-1.3-1.9-2-2.8c-0.7-0.9-1.4-1.9-2.1-2.8c-0.7-1-1.5-1.9-2.2-2.8c-0.8-1-1.5-1.9-2.3-2.8
		c-0.9-0.9-1.8-1.1-2.7-0.5c-0.8,0.7-1.5,1.3-2.4,1.9c-0.8,0.6-1.6,1.2-2.5,1.8c-0.9,0.6-1.7,1.2-2.7,1.7c-0.9,0.6-1.8,1.1-2.8,1.6
		c-1,0.7-1.2,1.6-0.7,2.8c0.5,1.1,1.1,2.2,1.6,3.4c0.5,1.1,1.1,2.2,1.6,3.3c0.5,1.1,1,2.2,1.6,3.3c0.5,1.1,1,2.1,1.5,3.2
		c0.7,1.1,1.6,1.3,2.9,0.7c1.2-0.6,2.3-1.3,3.4-2c1.1-0.7,2.2-1.4,3.3-2.2c1.1-0.7,2.1-1.5,3.1-2.3c1-0.8,2-1.6,2.9-2.4
		C173.1,164.7,172.6,163.5,172.3,162.9"/>
	<path class="st4" d="M183.8,146.6c-0.7-0.8-1.5-1.5-2.3-2.3c-0.8-0.8-1.6-1.5-2.5-2.2c-0.9-0.7-1.7-1.5-2.6-2.2
		c-0.9-0.7-1.8-1.4-2.8-2.1c-1-0.6-1.8-0.6-2.3,0.2c-0.4,0.8-0.8,1.5-1.2,2.3c-0.4,0.8-0.9,1.5-1.4,2.3c-0.5,0.8-1.1,1.5-1.6,2.2
		c-0.6,0.7-1.2,1.5-1.8,2.2c-0.6,0.9-0.5,1.8,0.3,2.8c0.8,0.9,1.6,1.8,2.4,2.7c0.8,0.9,1.6,1.8,2.3,2.8c0.7,0.9,1.5,1.8,2.2,2.8
		c0.7,0.9,1.4,1.8,2.1,2.8c0.8,0.9,1.6,0.9,2.5,0c0.8-0.9,1.5-1.8,2.2-2.7c0.7-0.9,1.4-1.9,2-2.8c0.6-0.9,1.2-1.9,1.7-2.9
		c0.5-1,1-1.9,1.5-2.9C184.8,148.1,184.2,147.1,183.8,146.6"/>
	<path class="st4" d="M185.9,129.6c-0.7-0.6-1.5-1.2-2.3-1.7c-0.8-0.6-1.6-1.1-2.5-1.6c-0.9-0.5-1.7-1-2.7-1.5
		c-0.9-0.5-1.9-0.9-2.8-1.3c-1-0.4-1.5-0.2-1.5,0.6c0.1,0.8,0.1,1.5,0.1,2.3c0,0.8-0.1,1.6-0.1,2.3c-0.1,0.8-0.2,1.6-0.4,2.3
		c-0.2,0.8-0.4,1.6-0.6,2.4c-0.1,0.9,0.3,1.7,1.2,2.5c1,0.7,1.9,1.3,2.8,2c0.9,0.7,1.8,1.4,2.7,2.1c0.9,0.7,1.7,1.4,2.5,2.1
		c0.8,0.7,1.6,1.5,2.3,2.2c0.8,0.7,1.4,0.6,1.8-0.4c0.3-1,0.5-2,0.7-2.9c0.2-1,0.3-1.9,0.4-2.9c0.1-1,0.1-1.9,0.1-2.9
		c0-1-0.1-1.9-0.2-2.9C187.2,130.8,186.4,130,185.9,129.6"/>
	<path class="st4" d="M163,109.7c-0.9-0.1-1.8-0.1-2.7-0.1c-0.9,0-1.9,0-2.8,0.1c-1,0.1-1.9,0.2-2.9,0.3c-1,0.1-2,0.3-3,0.5
		c-1,0.2-1.4,0.5-1.2,0.9c0.3,0.3,0.6,0.6,0.8,0.9c0.3,0.3,0.5,0.7,0.7,1c0.2,0.4,0.4,0.7,0.6,1.1c0.2,0.4,0.4,0.8,0.5,1.2
		c0.3,0.4,1,0.7,2.3,0.7c1.2,0,2.3,0.1,3.5,0.2c1.1,0.1,2.3,0.2,3.4,0.4c1.1,0.2,2.2,0.3,3.3,0.5c1.1,0.2,2.1,0.4,3.2,0.7
		c1.1,0.2,1.5,0,1.4-0.7c-0.3-0.6-0.6-1.3-0.9-1.9c-0.3-0.6-0.7-1.2-1.1-1.8c-0.4-0.6-0.8-1.1-1.2-1.6c-0.4-0.5-0.9-1-1.4-1.5
		C164.6,109.9,163.5,109.7,163,109.7"/>
	<path class="st4" d="M151.7,104.1c-0.6,0.1-1.3,0.1-1.9,0.3c-0.6,0.1-1.3,0.3-2,0.5c-0.7,0.2-1.3,0.4-2,0.7c-0.7,0.3-1.4,0.6-2,0.9
		c-0.5,0.3-0.9,0.6-0.4,0.9c0.5,0.1,0.9,0.3,1.4,0.4c0.4,0.2,0.9,0.3,1.3,0.5c0.4,0.2,0.8,0.4,1.2,0.6c0.4,0.2,0.8,0.5,1.1,0.7
		c0.5,0.2,1.2,0.2,2.3,0c1-0.2,1.9-0.4,2.9-0.6c0.9-0.2,1.9-0.3,2.8-0.4c0.9-0.1,1.8-0.1,2.7-0.2c0.9,0,1.8,0,2.6,0
		c0.5,0,0.6,0,0.8-0.1c0-0.2,0-0.2-0.3-0.5c-0.6-0.4-1.2-0.8-1.8-1.1c-0.6-0.4-1.3-0.7-2-1c-0.7-0.3-1.4-0.6-2.1-0.8
		c-0.7-0.3-1.4-0.5-2.2-0.7C152.9,104.1,152.1,104.1,151.7,104.1"/>
	<path class="st4" d="M137.1,103.4c-0.3,0.1-0.6,0.2-0.9,0.3c-0.3,0.1-0.6,0.3-0.9,0.5c-0.3,0.2-0.6,0.5-0.9,0.8
		c-0.3,0.3-0.6,0.6-0.9,1c-0.2,0.3-0.2,0.6,0.5,0.6c0.6,0,1.1-0.1,1.7-0.1c0.6,0,1.1,0,1.6,0c0.5,0,1.1,0,1.6,0.1
		c0.5,0,1,0.1,1.5,0.2c0.6,0,1.2-0.1,2-0.5c0.6-0.4,1.3-0.7,1.9-1c0.6-0.3,1.2-0.5,1.9-0.7c0.6-0.2,1.2-0.4,1.8-0.5
		c0.6-0.1,1.2-0.2,1.8-0.3c0.1,0,0.2,0,0.3-0.1c0,0,0-0.1-0.1-0.1c-0.2-0.1-0.3-0.1-0.6-0.1c-0.8-0.1-1.6-0.2-2.5-0.3
		c-0.8-0.1-1.7-0.1-2.5-0.1c-0.9,0-1.7,0-2.6,0c-0.9,0-1.8,0.1-2.7,0.2C138.8,103.2,137.6,103.3,137.1,103.4"/>
	<path class="st4" d="M121.4,107.8c0,0,0.1,0,0.1,0c0.1,0,0.1,0.1,0.2,0.2c0.1,0.1,0.2,0.2,0.3,0.4c0.1,0.2,0.3,0.4,0.4,0.6
		c0.2,0.2,0.7,0.3,1.2,0c0.3-0.1,0.6-0.3,0.9-0.4c0.3-0.1,0.6-0.2,0.9-0.3c0.3-0.1,0.6-0.2,0.9-0.3c0.3-0.1,0.6-0.2,1-0.3
		c0.3-0.1,0.5-0.2,0.8-0.2c0.3-0.1,0.5-0.1,0.8-0.2c0.3-0.1,0.5-0.1,0.8-0.2c0.3-0.1,0.5-0.1,0.8-0.2c0.6-0.2,1.1-0.4,1.4-0.8
		c0.2-0.4,0.4-0.7,0.7-1c0.2-0.3,0.5-0.5,0.7-0.7c0.2-0.2,0.5-0.4,0.7-0.5c0.3-0.1,0.5-0.2,0.8-0.3l-1.3,0.2
		c-1.6,0.3-3.6,0.8-5.1,1.3c-3.7,1.2-3.7,1.2-5.5,2L121.4,107.8"/>
	<path class="st4" d="M108.3,116.3c0.3-0.2,0.7-0.4,1-0.6c0.4-0.2,0.8-0.3,1.2-0.4c0.4-0.1,0.9-0.2,1.3-0.2c0.5,0,1-0.1,1.5-0.1
		c0.6,0,1.2-0.2,1.6-0.6c0.4-0.4,0.9-0.7,1.3-1c0.4-0.3,0.9-0.7,1.4-1c0.5-0.3,1-0.6,1.4-0.9c0.5-0.3,1-0.6,1.5-0.9
		c0.6-0.4,0.6-0.7,0.5-0.9c-0.2-0.2-0.4-0.4-0.6-0.5c-0.2-0.1-0.3-0.3-0.5-0.3c-0.1-0.1-0.3-0.1-0.4-0.2c-0.1,0-0.2,0-0.3,0
		l-1.5,0.8c-3.3,1.9-3.3,1.9-4.9,3c-1.2,0.9-2.8,2.1-3.9,3c-0.1,0.1-0.1,0.1-0.1,0.1c-0.1,0.1-0.1,0.1-0.1,0.1
		c-0.5,0.4-0.6,0.5-0.7,0.6C108.2,116.4,108.2,116.4,108.3,116.3"/>
	<path class="st4" d="M99.5,127.5c0.5-0.5,1.1-0.9,1.6-1.3c0.6-0.4,1.2-0.8,1.8-1.2c0.6-0.4,1.3-0.8,2-1.1c0.7-0.3,1.4-0.7,2.2-1
		c0.9-0.4,1.4-0.8,1.8-1.2c0.2-0.4,0.5-0.9,0.8-1.3c0.3-0.4,0.6-0.8,0.9-1.2c0.3-0.4,0.6-0.8,1-1.2c0.3-0.4,0.7-0.8,1.1-1.2
		c0.4-0.5,0-0.6-0.4-0.6c-0.6,0-1.1,0.1-1.6,0.2c-0.5,0.1-1,0.2-1.5,0.3c-0.5,0.1-0.9,0.3-1.3,0.5c-0.4,0.2-0.8,0.4-1.1,0.7
		c-0.4,0.3-0.9,0.8-1.6,1.5c-0.6,0.6-1.1,1.2-1.7,1.9c-0.5,0.6-1.1,1.3-1.5,1.9c-0.5,0.7-1,1.3-1.4,2c-0.4,0.7-0.9,1.4-1.2,2
		c-0.2,0.4-0.2,0.5-0.2,0.6C99.3,127.7,99.3,127.7,99.5,127.5"/>
	<path class="st4" d="M96.7,139.9c0.6-0.7,1.2-1.5,1.9-2.2c0.7-0.7,1.3-1.4,2.1-2.1c0.7-0.7,1.5-1.4,2.3-2.1c0.8-0.7,1.6-1.3,2.5-2
		c0.9-0.7,1.4-1.4,1.5-1.9c0-0.4,0-0.9,0-1.3c0-0.4,0.1-0.9,0.2-1.3c0.1-0.4,0.2-0.9,0.3-1.3c0.1-0.4,0.3-0.9,0.4-1.3
		c0.1-0.5-0.5-0.4-1.1-0.2c-0.8,0.3-1.6,0.7-2.3,1.1c-0.7,0.4-1.4,0.8-2.1,1.2c-0.7,0.4-1.3,0.9-1.9,1.3c-0.6,0.5-1.2,0.9-1.7,1.4
		c-0.6,0.6-1,1.3-1.4,2.1c-0.3,0.7-0.5,1.4-0.7,2.1c-0.2,0.7-0.4,1.4-0.5,2.2c-0.1,0.7-0.2,1.5-0.3,2.2c-0.1,0.7-0.1,1.5-0.1,2.2
		C95.8,140.8,96.4,140.3,96.7,139.9"/>
	<path class="st4" d="M101.1,150.8c0.5-1,1-2,1.6-3c0.6-1,1.2-2,1.8-3c0.6-1,1.3-2,2-3c0.7-1,1.4-2,2.1-2.9c0.8-1.1,1-1.8,0.8-2.2
		c-0.3-0.3-0.5-0.7-0.7-1c-0.2-0.4-0.4-0.7-0.6-1.1c-0.2-0.4-0.3-0.8-0.5-1.2c-0.1-0.4-0.3-0.8-0.4-1.2c-0.2-0.4-0.8-0.2-1.7,0.4
		c-0.9,0.7-1.7,1.4-2.5,2.1c-0.8,0.7-1.5,1.5-2.3,2.2c-0.7,0.7-1.4,1.5-2.1,2.3c-0.7,0.8-1.3,1.5-1.9,2.3c-0.6,0.9-0.9,1.8-0.8,2.6
		c0.1,0.7,0.3,1.4,0.5,2c0.2,0.7,0.5,1.3,0.7,1.9c0.3,0.6,0.6,1.2,1,1.8c0.4,0.6,0.7,1.2,1.1,1.7
		C100.2,152.3,100.8,151.4,101.1,150.8"/>
	<path class="st4" d="M111.8,157.8c0.3-1.2,0.5-2.4,0.8-3.6c0.3-1.2,0.6-2.4,1-3.6c0.4-1.2,0.7-2.4,1.1-3.6c0.4-1.2,0.8-2.4,1.3-3.5
		c0.4-1.2,0.4-2,0-2.3c-0.5-0.2-0.9-0.4-1.3-0.6c-0.4-0.2-0.8-0.4-1.2-0.6c-0.4-0.2-0.8-0.5-1.2-0.7c-0.4-0.3-0.7-0.5-1.1-0.8
		c-0.4-0.2-1,0.2-1.8,1.2c-0.7,1-1.4,2-2,3c-0.7,1-1.3,2-1.9,3.1c-0.6,1-1.2,2.1-1.7,3.1c-0.5,1-1,2.1-1.5,3.1
		c-0.4,1.2-0.4,2,0.1,2.7c0.5,0.5,1.1,0.9,1.7,1.4c0.6,0.4,1.2,0.8,1.9,1.2c0.6,0.4,1.3,0.8,2,1.1c0.7,0.3,1.4,0.7,2.2,1
		C111.1,159.6,111.6,158.5,111.8,157.8"/>
	<path class="st4" d="M127,159.5c-0.1-1.3-0.2-2.5-0.3-3.8c-0.1-1.3-0.1-2.5-0.2-3.8c0-1.2-0.1-2.5-0.1-3.7c0-1.2,0-2.5,0-3.7
		c-0.1-1.3-0.4-1.9-1-2c-0.6,0-1.2,0-1.7,0c-0.6,0-1.1,0-1.7-0.1c-0.6,0-1.1-0.1-1.6-0.2c-0.5-0.1-1.1-0.2-1.6-0.3
		c-0.6,0-1.1,0.6-1.6,1.8c-0.4,1.2-0.8,2.4-1.1,3.6c-0.3,1.2-0.7,2.4-1,3.6c-0.3,1.2-0.6,2.4-0.8,3.6c-0.3,1.2-0.5,2.4-0.7,3.6
		c-0.1,1.3,0.2,2.1,1.1,2.5c0.8,0.2,1.7,0.4,2.5,0.5c0.9,0.1,1.8,0.3,2.7,0.3c0.9,0.1,1.8,0.1,2.8,0.2c0.9,0,1.9,0,2.8,0
		C126.9,161.5,127,160.3,127,159.5"/>
	<path class="st4" d="M144.3,155.2c-0.5-1.2-1-2.3-1.5-3.4c-0.5-1.1-1-2.3-1.5-3.4c-0.5-1.1-1-2.3-1.5-3.4c-0.5-1.1-1-2.2-1.5-3.3
		c-0.6-1.1-1.2-1.6-1.9-1.5c-0.3,0.1-0.5,0.2-0.8,0.3c-0.3,0.1-0.6,0.2-0.8,0.3c-0.3,0.1-0.6,0.2-0.8,0.3c-0.3,0.1-0.6,0.2-0.9,0.3
		c-0.3,0.1-0.7,0.2-1,0.3c-0.3,0.1-0.7,0.2-1,0.2c-0.3,0.1-0.7,0.1-1,0.2c-0.3,0.1-0.7,0.1-1,0.2c-0.6,0.2-1,1-1,2.3
		c0.1,1.2,0.1,2.4,0.2,3.7c0.1,1.2,0.2,2.5,0.3,3.7c0.1,1.2,0.2,2.5,0.4,3.7c0.1,1.2,0.3,2.5,0.4,3.7c0.3,1.3,0.9,1.9,2,1.9
		c0.5-0.1,1.1-0.2,1.7-0.3c0.6-0.1,1.1-0.2,1.7-0.3c0.6-0.1,1.1-0.3,1.7-0.4c0.6-0.1,1.1-0.3,1.7-0.5c0.5-0.1,0.9-0.3,1.4-0.4
		c0.5-0.1,0.9-0.3,1.4-0.5c0.5-0.2,0.9-0.3,1.4-0.5c0.5-0.2,0.9-0.3,1.3-0.5C144.8,157.1,144.6,155.8,144.3,155.2"/>
	<path class="st4" d="M158.6,145.8c-0.8-0.9-1.7-1.8-2.6-2.7c-0.9-0.9-1.7-1.8-2.6-2.7c-0.9-0.9-1.8-1.8-2.7-2.6
		c-0.9-0.9-1.8-1.7-2.7-2.5c-1-0.8-1.8-1.1-2.3-0.8c-0.4,0.4-0.9,0.7-1.4,1.1c-0.5,0.4-1,0.7-1.5,1c-0.5,0.3-1,0.7-1.5,1
		c-0.5,0.3-1.1,0.6-1.6,0.9c-0.5,0.4-0.5,1.2,0,2.3c0.6,1.1,1.1,2.2,1.7,3.2c0.6,1.1,1.1,2.2,1.7,3.3c0.6,1.1,1.1,2.2,1.7,3.3
		c0.6,1.1,1.1,2.2,1.7,3.4c0.7,1.2,1.5,1.5,2.6,1.1c0.9-0.5,1.8-1,2.7-1.5c0.9-0.5,1.7-1.1,2.5-1.6c0.8-0.6,1.6-1.1,2.4-1.7
		c0.8-0.6,1.5-1.2,2.2-1.8C159.8,147.5,159.1,146.4,158.6,145.8"/>
	<path class="st4" d="M167.5,133.8c-1-0.6-2.1-1.2-3.2-1.8c-1.1-0.6-2.2-1.2-3.3-1.7c-1.1-0.6-2.2-1.1-3.3-1.6
		c-1.1-0.5-2.3-1-3.4-1.5c-1.2-0.4-2-0.5-2.4,0c-0.2,0.4-0.5,0.9-0.8,1.3c-0.3,0.4-0.6,0.9-0.9,1.3c-0.3,0.4-0.6,0.9-1,1.3
		c-0.3,0.4-0.7,0.8-1.1,1.2c-0.3,0.5,0,1.2,1,2c0.9,0.8,1.9,1.6,2.8,2.4c0.9,0.8,1.9,1.6,2.8,2.5c0.9,0.8,1.8,1.7,2.7,2.6
		c0.9,0.9,1.8,1.7,2.7,2.6c1,0.9,1.8,1,2.6,0.4c0.6-0.7,1.2-1.4,1.7-2.1c0.6-0.7,1.1-1.4,1.6-2.1c0.5-0.7,0.9-1.4,1.4-2.2
		c0.4-0.7,0.8-1.5,1.2-2.2C169,135,168.1,134.2,167.5,133.8"/>
	<path class="st4" d="M169.4,121.1c-1.1-0.3-2.1-0.6-3.2-0.9c-1.1-0.3-2.2-0.5-3.4-0.8c-1.1-0.2-2.3-0.4-3.5-0.6
		c-1.2-0.2-2.4-0.3-3.5-0.4c-1.2-0.1-1.9,0.1-2,0.6c0,0.4,0,0.9,0,1.3c0,0.4-0.1,0.9-0.1,1.3c-0.1,0.5-0.2,0.9-0.3,1.4
		c-0.1,0.5-0.2,0.9-0.4,1.4c0,0.5,0.5,1,1.8,1.5c1.2,0.4,2.3,0.9,3.5,1.4c1.1,0.5,2.3,1,3.4,1.5c1.1,0.5,2.2,1.1,3.3,1.6
		c1.1,0.6,2.2,1.1,3.2,1.7c1.2,0.6,1.9,0.5,2.2-0.2c0.2-0.7,0.4-1.5,0.6-2.2c0.2-0.7,0.3-1.5,0.4-2.2c0.1-0.7,0.1-1.5,0.1-2.2
		c0-0.7,0-1.5-0.1-2.2C171.1,121.9,170,121.3,169.4,121.1"/>
	<path class="st4" d="M145.2,112.1c-1,0.3-2.1,0.7-3.2,1.1c-1.1,0.4-2.1,0.9-3.2,1.4c-1.1,0.5-2.1,1-3.2,1.6
		c-1.1,0.6-2.1,1.2-3.2,1.8c-1.1,0.7-1.6,1-1.8,1.2c0,0.1,0,0.1,0.1,0.1c0,0,0,0.1,0.1,0.1c0,0,0,0.1,0.1,0.1c0,0,0,0.1,0,0.1
		c0.2,0,0.3,0,2.2-0.6c1.3-0.3,2.5-0.7,3.8-0.9c1.3-0.3,2.5-0.5,3.7-0.7c1.2-0.2,2.5-0.4,3.7-0.5c1.2-0.2,2.5-0.3,3.7-0.4
		c1.3-0.1,1.9-0.4,1.9-0.7c-0.1-0.4-0.3-0.7-0.4-1c-0.2-0.3-0.3-0.7-0.5-1c-0.2-0.3-0.4-0.6-0.6-0.9c-0.2-0.3-0.5-0.6-0.7-0.8
		C147,111.6,145.9,111.9,145.2,112.1"/>
	<path class="st4" d="M139.5,109.2c-0.7,0.5-1.4,1.1-2.1,1.7c-0.7,0.6-1.4,1.2-2.1,1.9c-0.7,0.7-1.4,1.4-2.1,2.1
		c-0.7,0.8-1.4,1.5-2.1,2.4c-0.7,0.9-1,1.3-1.1,1.5c0,0,0.1,0.1,0.1,0.1c0,0,0.1,0,0.1,0.1c0,0,0.1,0,0.1,0.1c0,0,0.1,0,0.1,0.1
		c0.2-0.1,0.3-0.1,1.8-1.2c1-0.7,2.1-1.3,3.1-1.9c1-0.6,2.1-1.2,3.1-1.7c1-0.5,2-1,3.1-1.5c1-0.4,2-0.9,3-1.2c1.1-0.4,1.4-0.7,1.2-1
		c-0.3-0.2-0.6-0.4-1-0.6c-0.3-0.2-0.7-0.4-1.1-0.5c-0.4-0.2-0.7-0.3-1.1-0.5c-0.4-0.1-0.8-0.3-1.2-0.4
		C140.7,108.4,139.9,108.9,139.5,109.2"/>
	<path class="st4" d="M131.9,108.8c-0.3,0.5-0.5,1.1-0.7,1.7c-0.2,0.6-0.5,1.3-0.7,2c-0.2,0.7-0.4,1.4-0.6,2.2
		c-0.2,0.8-0.4,1.6-0.6,2.5c-0.2,1-0.2,1.4-0.2,1.5c0.1,0,0.1,0,0.2,0c0.1,0,0.1,0,0.2,0c0.1,0,0.1,0,0.2,0c0.1,0,0.1,0,0.2,0
		c0.1-0.1,0.2-0.2,1.2-1.5c0.6-0.8,1.3-1.7,1.9-2.4c0.6-0.8,1.3-1.5,1.9-2.2c0.6-0.7,1.3-1.3,1.9-1.9c0.6-0.6,1.3-1.2,1.9-1.7
		c0.7-0.6,0.8-0.9,0.4-1c-0.4-0.1-0.9-0.1-1.4-0.2c-0.5,0-0.9-0.1-1.4-0.1c-0.5,0-0.9,0-1.4,0c-0.5,0-1,0-1.5,0.1
		C132.5,107.9,132.1,108.4,131.9,108.8"/>
	<path class="st4" d="M123.7,111.1c0.2,0.4,0.5,0.8,0.7,1.3c0.3,0.5,0.5,1,0.8,1.5c0.3,0.5,0.6,1.1,0.9,1.8c0.3,0.6,0.7,1.3,1,2
		c0.4,0.7,0.6,1.1,0.7,1.2c0.1,0,0.1,0,0.1,0c0,0,0.1,0,0.1,0c0,0,0.1,0,0.1,0c0,0,0.1,0,0.1,0c0,0,0.1,0,0.1,0c0,0,0.1,0,0.1,0
		c0,0,0.1,0,0.1,0c0,0,0.1,0,0.1,0c0-0.1,0.1-0.3,0.3-1.5c0.1-0.8,0.2-1.7,0.4-2.4c0.1-0.8,0.3-1.5,0.4-2.2c0.2-0.7,0.3-1.3,0.5-1.9
		c0.2-0.6,0.4-1.2,0.5-1.7c0.2-0.5,0-0.8-0.5-0.7c-0.2,0-0.5,0.1-0.7,0.1c-0.2,0.1-0.5,0.1-0.7,0.2c-0.2,0.1-0.5,0.1-0.7,0.2
		c-0.2,0.1-0.5,0.1-0.7,0.2c-0.3,0.1-0.6,0.2-0.8,0.3c-0.3,0.1-0.6,0.2-0.8,0.3c-0.3,0.1-0.5,0.2-0.8,0.3c-0.3,0.1-0.5,0.2-0.8,0.3
		C123.6,110.3,123.5,110.7,123.7,111.1"/>
	<path class="st4" d="M116.8,115.6c0.6,0.1,1.3,0.3,2,0.5c0.7,0.2,1.4,0.4,2.1,0.7c0.7,0.3,1.5,0.6,2.3,0.9c0.8,0.3,1.6,0.7,2.4,1.1
		c0.2,0.1,1.1,0.5,1.5,0.7c0.1,0,0.1-0.1,0.2-0.1c0,0,0.1-0.1,0.1-0.1c0,0,0.1-0.1,0.1-0.1c0,0,0.1-0.1,0.2-0.1
		c-0.1-0.2-0.4-0.8-0.7-1.2c-0.4-0.7-0.9-1.3-1.3-1.9c-0.4-0.6-0.8-1.1-1.1-1.7c-0.4-0.5-0.7-1-1-1.4c-0.3-0.4-0.6-0.8-0.9-1.2
		c-0.3-0.4-0.7-0.4-1.3-0.2c-0.5,0.2-0.9,0.5-1.3,0.8c-0.4,0.3-0.9,0.5-1.3,0.8c-0.4,0.3-0.8,0.6-1.2,0.9c-0.4,0.3-0.8,0.6-1.1,0.9
		C116.3,114.9,115.9,115.3,116.8,115.6"/>
	<path class="st4" d="M112.4,121.3c0.9-0.2,1.8-0.4,2.8-0.5c1-0.2,1.9-0.3,3-0.4c1-0.1,2.1-0.2,3.1-0.2c1.1,0,2.2-0.1,3.3,0
		c1,0,1.7,0,2,0c0.1-0.1,0.1-0.1,0.1-0.1c0,0,0.1-0.1,0.1-0.1c0,0,0.1-0.1,0.1-0.1c0,0,0.1-0.1,0.1-0.1c-0.3-0.2-1.1-0.6-1.5-0.7
		c-0.9-0.4-1.7-0.7-2.6-1c-0.8-0.3-1.6-0.5-2.4-0.8c-0.8-0.2-1.5-0.4-2.3-0.6c-0.7-0.2-1.4-0.3-2.1-0.4c-0.5,0-1.1,0-1.7,0.5
		c-0.3,0.3-0.6,0.7-0.9,1c-0.3,0.4-0.6,0.7-0.8,1.1c-0.3,0.4-0.5,0.7-0.8,1.1c-0.2,0.4-0.5,0.7-0.7,1.1
		C111.1,121.2,111,121.6,112.4,121.3"/>
	<path class="st4" d="M111.1,127.6c1-0.6,2-1.1,3-1.7c1-0.5,2.1-1.1,3.2-1.6c1.1-0.5,2.2-1,3.4-1.4c1.2-0.5,2.3-0.9,3.5-1.3
		c1.7-0.6,2-0.7,2.1-0.7c0-0.1,0-0.1,0-0.2c0,0,0-0.1,0-0.1c0,0,0-0.1,0-0.1c0,0,0-0.1,0-0.1c-0.4-0.1-1.5,0-2,0
		c-1.1,0-2.3,0.1-3.4,0.2c-1.1,0.1-2.2,0.2-3.2,0.4c-1,0.2-2,0.3-3,0.5c-1,0.2-1.9,0.4-2.9,0.7c-1,0.3-1.6,0.7-1.8,1.1
		c-0.1,0.4-0.3,0.8-0.4,1.2c-0.1,0.4-0.2,0.8-0.3,1.2c-0.1,0.4-0.1,0.8-0.1,1.2c0,0.4,0,0.8,0,1.2
		C109.5,128.3,110,128.2,111.1,127.6"/>
	<path class="st4" d="M113.4,133.1c0.9-0.9,1.7-1.8,2.6-2.7c0.9-0.9,1.8-1.7,2.8-2.6c1-0.8,1.9-1.7,2.9-2.5c1-0.8,2-1.6,3.1-2.4
		c1.5-1.1,1.7-1.2,1.7-1.3c0-0.1,0-0.1,0-0.1c0,0,0-0.1-0.1-0.1c0,0,0-0.1-0.1-0.1c0,0,0-0.1,0-0.1c-0.5,0.1-1.6,0.5-2.1,0.7
		c-1.2,0.5-2.4,0.9-3.5,1.4c-1.1,0.5-2.3,1-3.4,1.6c-1.1,0.5-2.2,1.1-3.2,1.7c-1,0.6-2,1.2-3,1.8c-1,0.7-1.5,1.3-1.5,1.8
		c0.1,0.4,0.2,0.7,0.3,1.1c0.1,0.4,0.3,0.7,0.4,1c0.2,0.3,0.3,0.7,0.5,1c0.2,0.3,0.4,0.6,0.6,0.9C111.9,134.4,112.5,134,113.4,133.1
		"/>
	<path class="st4" d="M118.9,136.4c0.5-1.1,1.1-2.2,1.6-3.3c0.6-1.1,1.1-2.2,1.8-3.2c0.6-1.1,1.2-2.1,1.9-3.1c0.6-1,1.3-2,2-3
		c0.3-0.5,0.9-1.4,1.1-1.7c0-0.1-0.1-0.1-0.1-0.1c0,0-0.1,0-0.1-0.1c0,0-0.1,0-0.1-0.1c0,0-0.1,0-0.1-0.1c-0.4,0.2-1.4,1-1.8,1.3
		c-1,0.8-2,1.6-2.9,2.5c-1,0.8-1.9,1.7-2.8,2.6c-0.9,0.9-1.8,1.8-2.7,2.7c-0.9,0.9-1.7,1.9-2.5,2.8c-0.8,1-1.1,1.7-0.9,2.1
		c0.3,0.2,0.6,0.5,0.9,0.7c0.3,0.2,0.7,0.4,1,0.6c0.4,0.2,0.7,0.4,1.1,0.6c0.4,0.2,0.8,0.3,1.2,0.5
		C117.9,138.2,118.5,137.2,118.9,136.4"/>
	<path class="st4" d="M126.6,137.2c0.1-1.2,0.1-2.3,0.2-3.5c0.1-1.1,0.2-2.3,0.3-3.4c0.1-1.1,0.2-2.2,0.4-3.3
		c0.1-1.1,0.3-2.1,0.5-3.1c0-0.3,0.2-1.3,0.2-1.7c-0.1,0-0.1,0-0.2,0s-0.1,0-0.2,0c-0.1,0-0.1,0-0.2,0c-0.1,0-0.1,0-0.2,0
		c-0.3,0.3-0.9,1.2-1.2,1.7c-0.6,1-1.2,2-1.8,3.1c-0.6,1-1.1,2.1-1.7,3.2c-0.5,1.1-1.1,2.2-1.6,3.3c-0.5,1.1-1,2.2-1.5,3.4
		c-0.5,1.2-0.5,1.9,0,2.2c0.4,0.1,0.9,0.2,1.4,0.2c0.5,0.1,0.9,0.1,1.4,0.2c0.5,0,1,0.1,1.5,0.1c0.5,0,1,0,1.5,0
		C126.3,139.1,126.6,138,126.6,137.2"/>
	<path class="st4" d="M135.3,135c-0.5-1-0.9-2.1-1.4-3.1c-0.5-1-0.9-2-1.3-3c-0.4-1-0.9-1.9-1.3-2.8c-0.4-0.9-0.8-1.8-1.2-2.7
		c-0.5-1-0.7-1.3-0.8-1.4c-0.1,0-0.1,0-0.1,0c-0.1,0-0.1,0-0.2,0.1c0,0-0.1,0-0.1,0c0,0-0.1,0-0.1,0c0,0-0.1,0-0.1,0
		c0,0-0.1,0-0.1,0c0,0-0.1,0-0.1,0c-0.1,0.3-0.2,1.1-0.3,1.7c-0.1,1-0.2,2.1-0.2,3.1c-0.1,1.1-0.1,2.1-0.2,3.2
		c0,1.1-0.1,2.2-0.1,3.4c0,1.1,0,2.3,0,3.5c0,0.8,0.2,1.9,1,1.9c0.3,0,0.6-0.1,0.9-0.2c0.3-0.1,0.6-0.1,0.9-0.2
		c0.3-0.1,0.6-0.1,0.9-0.2c0.3-0.1,0.6-0.2,0.9-0.2c0.2-0.1,0.5-0.1,0.7-0.2c0.2-0.1,0.5-0.2,0.7-0.2c0.2-0.1,0.5-0.2,0.7-0.3
		c0.2-0.1,0.5-0.2,0.7-0.3C135.9,136.7,135.6,135.7,135.3,135"/>
	<path class="st4" d="M142.5,130.3c-0.9-0.8-1.8-1.5-2.7-2.2c-0.9-0.7-1.8-1.4-2.7-2.1c-0.9-0.7-1.8-1.3-2.7-1.9
		c-0.9-0.6-1.8-1.2-2.7-1.8c-1-0.6-1.4-0.8-1.5-0.9c-0.1,0-0.1,0.1-0.2,0.1c0,0-0.1,0.1-0.1,0.1c0,0-0.1,0.1-0.1,0.1
		c-0.1,0-0.1,0.1-0.2,0.1c0,0.1,0.1,0.3,0.7,1.5c0.5,0.8,1,1.7,1.5,2.6c0.5,0.9,1,1.8,1.5,2.7c0.5,0.9,1,1.9,1.6,2.9
		c0.5,1,1.1,2,1.6,3c0.4,0.7,1,1.6,1.8,1.3c0.5-0.3,1-0.5,1.4-0.8c0.5-0.3,0.9-0.6,1.3-0.9c0.4-0.3,0.9-0.6,1.3-0.9
		c0.4-0.3,0.8-0.6,1.2-1C143.9,131.7,143,130.8,142.5,130.3"/>
	<path class="st4" d="M147.1,124.4c-1.2-0.4-2.4-0.8-3.6-1.1c-1.2-0.3-2.4-0.7-3.6-0.9c-1.2-0.3-2.4-0.6-3.6-0.8
		c-1.2-0.2-2.4-0.4-3.6-0.6c-1.3-0.2-1.8-0.2-2-0.2c-0.1,0.1-0.1,0.1-0.1,0.1c0,0-0.1,0.1-0.1,0.1c0,0-0.1,0.1-0.1,0.1
		c0,0-0.1,0.1-0.1,0.1c0.1,0.1,0.2,0.2,1.5,0.9c0.9,0.5,1.9,1.1,2.8,1.7c0.9,0.6,1.9,1.2,2.8,1.8c1,0.6,1.9,1.3,2.9,1.9
		c1,0.7,1.9,1.4,2.9,2.1c0.7,0.5,1.6,1,2.2,0.6c0.3-0.4,0.7-0.7,1-1.1c0.3-0.4,0.6-0.7,0.9-1.1c0.3-0.4,0.5-0.8,0.8-1.1
		c0.2-0.4,0.5-0.8,0.7-1.2C148.9,125.1,147.8,124.6,147.1,124.4"/>
	<path class="st4" d="M148.3,118c-1.2,0-2.5,0-3.7,0.1c-1.3,0.1-2.5,0.1-3.8,0.3c-1.3,0.1-2.5,0.3-3.8,0.4c-1.3,0.2-2.5,0.4-3.8,0.6
		c-1.4,0.3-2,0.4-2.1,0.5c0,0.1,0,0.1,0,0.2c0,0,0,0.1,0,0.1c0,0,0,0.1,0,0.1c0,0,0,0.1,0,0.1c0.2,0,0.3,0.1,2.1,0.3
		c1.2,0.1,2.4,0.3,3.6,0.5c1.2,0.2,2.4,0.4,3.6,0.6c1.2,0.2,2.4,0.5,3.6,0.8c1.2,0.3,2.4,0.6,3.6,0.9c1.3,0.3,2,0.3,2.3-0.1
		c0.1-0.4,0.2-0.8,0.3-1.2c0.1-0.4,0.2-0.8,0.2-1.2c0.1-0.4,0.1-0.8,0.1-1.2c0-0.4,0-0.8,0-1.2C150.3,118.1,149,118,148.3,118"/>
</g>
<path class="st0" d="M145.1,47.1c-22.2,12-47.7,24.6-102.6,29.8c0,51.5-9.7,116.1,53.2,177.1c0,0,24.6-8.6,31.2-13.7
	c-24-22.9-58.1-54.6-53.5-136.2c23.7-3.4,60.1-9.7,101.3-42.6L145.1,47.1z"/>
<path class="st1" d="M113.6,268.3c0,0,14.6,11.2,31.5,16.6c29.5-10.3,100.3-54.3,103-154.2c0.4-10.1,0.2-18.2,0-53.5
	c-38.5-4.3-53.5-8.8-53.5-8.8s-14.3,15-28.5,22.5c7.7,3.7,30.6,11,51.2,13.9C218.3,160.9,213.6,225.9,113.6,268.3z"/>
<path class="st5" d="M263.3,142.7"/>
</svg>
